<svg width="359" height="278" viewBox="0 0 359 278" fill="none" xmlns="http://www.w3.org/2000/svg">
<g clip-path="url(#clip0_3_29)">
<path d="M357.242 9.12736C327.516 24.5483 297.693 16.6572 268.842 9.03103C239.807 1.34867 209.792 -6.57452 179.496 8.74204C149.208 -6.57452 119.193 1.3567 90.1492 9.03103C61.3062 16.6572 31.4758 24.5483 1.74979 9.12736C0.947039 8.70993 -0.00823975 9.29594 -0.00823975 10.195V268.064L0.641992 268.401C12.4826 274.542 25.0778 277.528 39.1582 277.528C56.6101 277.528 73.9656 272.937 90.7593 268.497C119.305 260.944 148.806 253.157 178.227 267.936C178.476 268.369 178.99 268.618 179.496 268.513C180.002 268.61 180.515 268.369 180.764 267.936C210.185 253.165 239.686 260.952 268.232 268.497C285.018 272.937 302.382 277.528 319.833 277.528C333.914 277.528 346.509 274.542 358.35 268.401L359 268.064V10.195C359 9.28792 358.045 8.70993 357.242 9.12736Z" fill="white"/>
<path d="M357.242 9.12736C327.516 24.5483 297.693 16.6572 268.842 9.03103C239.807 1.34867 209.792 -6.57452 179.496 8.74204C149.208 -6.57452 119.193 1.3567 90.1492 9.03103C61.3062 16.6572 31.4758 24.5483 1.74979 9.12736C0.947039 8.70993 -0.00823975 9.29594 -0.00823975 10.195V268.064L0.641992 268.401C12.4826 274.542 25.0778 277.528 39.1582 277.528C56.6101 277.528 73.9656 272.937 90.7593 268.497C119.305 260.944 148.806 253.157 178.227 267.936C178.476 268.369 178.99 268.618 179.496 268.513C180.002 268.61 180.515 268.369 180.764 267.936C210.185 253.165 239.686 260.952 268.232 268.497C285.018 272.937 302.382 277.528 319.833 277.528C333.914 277.528 346.509 274.542 358.35 268.401L359 268.064V10.195C359 9.28792 358.045 8.70993 357.242 9.12736ZM181.39 12.0654C181.39 11.5998 181.663 11.1664 182.081 10.9657C211.172 -2.83368 240.176 4.84065 268.24 12.2661C296.064 19.6274 324.81 27.2295 353.983 14.3533C354.785 14.0001 355.684 14.57 355.684 15.445V238.362C355.684 238.828 355.411 239.261 354.994 239.462C325.91 253.253 296.915 245.579 268.858 238.161C252.065 233.722 234.701 229.122 217.209 229.122C204.871 229.122 193.68 231.402 183.092 236.074C182.289 236.427 181.39 235.857 181.39 234.982V12.0654ZM3.31517 15.445C3.31517 14.57 4.21425 14.0001 5.01701 14.3533C34.1891 27.2295 62.9358 19.6274 90.7593 12.2661C118.824 4.84065 147.827 -2.83368 176.919 10.9657C177.344 11.1664 177.609 11.5918 177.609 12.0654V234.982C177.609 235.857 176.71 236.427 175.907 236.074C165.319 231.394 154.137 229.122 141.79 229.122C124.298 229.122 106.935 233.714 90.1411 238.161C62.0849 245.587 33.0893 253.261 4.00553 239.462C3.58007 239.261 3.31517 238.836 3.31517 238.362V15.445ZM176.357 263.874C165.632 259.057 154.289 256.705 141.758 256.705C124.282 256.705 106.927 261.281 90.1492 265.712C61.9243 273.153 32.7602 280.844 3.54796 266.747C3.13053 266.547 2.86562 266.121 2.86562 265.656V244.302C2.86562 243.419 3.77274 242.849 4.57549 243.211C15.2682 248.067 26.6272 250.427 39.1582 250.427C56.6101 250.427 73.9656 245.836 90.7593 241.396C119.032 233.915 148.245 226.208 177.385 240.417C177.802 240.618 178.067 241.043 178.067 241.509V262.774C178.067 263.657 177.16 264.227 176.357 263.866V263.874ZM356.134 265.656C356.134 266.121 355.869 266.547 355.452 266.747C326.247 280.844 297.075 273.153 268.85 265.712C252.065 261.289 234.709 256.705 217.241 256.705C204.71 256.705 193.367 259.049 182.643 263.874C181.84 264.235 180.933 263.665 180.933 262.782V241.517C180.933 241.051 181.198 240.626 181.615 240.425C210.755 226.216 239.967 233.923 268.24 241.404C285.026 245.844 302.39 250.435 319.841 250.435C332.372 250.435 343.731 248.067 354.424 243.219C355.227 242.857 356.134 243.427 356.134 244.31V265.664V265.656Z" fill="black"/>
<path d="M44.1676 43.3327C34.374 43.3327 24.476 41.5666 14.4897 36.9026C13.679 36.5253 13.3498 35.5379 13.7432 34.7352C14.1365 33.9485 15.0757 33.6274 15.8785 34.0047C40.8843 45.6446 65.7617 38.2673 89.8283 31.1308C114.722 23.7535 140.45 16.1273 166.515 29.2042C167.318 29.6056 167.615 30.601 167.198 31.3877C166.788 32.1664 165.833 32.4554 165.046 32.062C140.113 19.5792 115.019 27.0127 90.7434 34.2134C75.5232 38.7249 59.9819 43.3327 44.1756 43.3327H44.1676Z" fill="black"/>
<path d="M44.1676 60.1825C34.374 60.1825 24.476 58.4165 14.4897 53.7525C13.679 53.3752 13.3498 52.3878 13.7432 51.585C14.1365 50.7983 15.0757 50.4772 15.8785 50.8545C40.8843 62.4945 65.7617 55.1171 89.8283 47.9806C114.722 40.6033 140.45 32.9772 166.515 46.054C167.318 46.4554 167.615 47.4508 167.198 48.2375C166.788 49.0162 165.833 49.3052 165.046 48.9118C140.113 36.429 115.019 43.8625 90.7434 51.0632C75.5232 55.5747 59.9819 60.1825 44.1756 60.1825H44.1676Z" fill="black"/>
<path d="M44.1676 77.0323C34.374 77.0323 24.476 75.2663 14.4897 70.6023C13.679 70.225 13.3498 69.2376 13.7432 68.4348C14.1365 67.6481 15.0757 67.327 15.8785 67.7043C40.8843 79.3443 65.7617 71.967 89.8283 64.8305C114.722 57.4532 140.45 49.827 166.515 62.9039C167.318 63.3052 167.615 64.3006 167.198 65.0873C166.788 65.866 165.833 66.155 165.046 65.7617C140.113 53.2788 115.019 60.7123 90.7434 67.913C75.5232 72.4245 59.9738 77.0323 44.1756 77.0323H44.1676Z" fill="black"/>
<path d="M44.1676 93.8822C34.374 93.8822 24.476 92.1161 14.4897 87.4521C13.679 87.0748 13.3498 86.0874 13.7432 85.2847C14.1365 84.498 15.0757 84.1769 15.8785 84.5542C40.8843 96.1861 65.7537 88.8168 89.8283 81.6803C114.722 74.303 140.45 66.6768 166.515 79.7537C167.318 80.1551 167.615 81.1505 167.198 81.9372C166.788 82.7158 165.833 83.0048 165.046 82.6115C140.113 70.1287 115.019 77.5622 90.7434 84.7629C75.5232 89.2743 59.9738 93.8822 44.1756 93.8822H44.1676Z" fill="black"/>
<path d="M44.1676 108.516C34.374 108.516 24.476 106.75 14.4897 102.086C13.679 101.709 13.3498 100.722 13.7432 99.9189C14.1365 99.1322 15.0757 98.8111 15.8785 99.1884C40.3465 110.579 64.702 103.756 88.295 96.7721C89.1459 96.5232 90.037 97.0049 90.2858 97.8558C90.5347 98.7067 90.053 99.5978 89.2021 99.8547C74.4716 104.214 59.444 108.516 44.1756 108.516H44.1676Z" fill="black"/>
</g>
<defs>
<clipPath id="clip0_3_29">
<rect width="359" height="277.536" fill="white"/>
</clipPath>
</defs>
</svg>
